<mxfile host="Electron" modified="2024-03-03T15:01:25.096Z" agent="Mozilla/5.0 (Windows NT 10.0; Win64; x64) AppleWebKit/537.36 (KHTML, like Gecko) draw.io/23.1.5 Chrome/120.0.6099.109 Electron/28.1.0 Safari/537.36" etag="voOwoftUOzHymVeU-bNq" version="23.1.5" type="device">
  <diagram name="Page-1" id="cPItghdY_gWBDkyQqRpp">
    <mxGraphModel dx="1290" dy="669" grid="1" gridSize="10" guides="1" tooltips="1" connect="1" arrows="1" fold="1" page="1" pageScale="1" pageWidth="850" pageHeight="1100" math="0" shadow="0">
      <root>
        <mxCell id="0" />
        <mxCell id="1" parent="0" />
        <mxCell id="-7PR-wgNFXZOQXTYZh8K-1" value="saving_fixed" style="swimlane;whiteSpace=wrap;html=1;startSize=30;" parent="1" vertex="1">
          <mxGeometry x="320" y="120" width="200" height="200" as="geometry" />
        </mxCell>
        <mxCell id="-7PR-wgNFXZOQXTYZh8K-10" value="" style="endArrow=none;html=1;rounded=0;" parent="-7PR-wgNFXZOQXTYZh8K-1" edge="1">
          <mxGeometry width="50" height="50" relative="1" as="geometry">
            <mxPoint x="40" y="30" as="sourcePoint" />
            <mxPoint x="40" y="200" as="targetPoint" />
          </mxGeometry>
        </mxCell>
        <mxCell id="-7PR-wgNFXZOQXTYZh8K-9" value="" style="endArrow=none;html=1;rounded=0;entryX=1;entryY=0.25;entryDx=0;entryDy=0;" parent="-7PR-wgNFXZOQXTYZh8K-1" edge="1">
          <mxGeometry width="50" height="50" relative="1" as="geometry">
            <mxPoint y="60" as="sourcePoint" />
            <mxPoint x="200" y="60" as="targetPoint" />
          </mxGeometry>
        </mxCell>
        <mxCell id="-7PR-wgNFXZOQXTYZh8K-12" value="&lt;b&gt;PK&lt;/b&gt;" style="text;html=1;align=center;verticalAlign=middle;resizable=0;points=[];autosize=1;strokeColor=none;fillColor=none;" parent="-7PR-wgNFXZOQXTYZh8K-1" vertex="1">
          <mxGeometry y="30" width="40" height="30" as="geometry" />
        </mxCell>
        <mxCell id="-7PR-wgNFXZOQXTYZh8K-13" value="&lt;font style=&quot;font-size: 14px;&quot;&gt;&lt;u&gt;sid&lt;/u&gt;&lt;/font&gt;" style="text;html=1;align=center;verticalAlign=middle;resizable=0;points=[];autosize=1;strokeColor=none;fillColor=none;" parent="-7PR-wgNFXZOQXTYZh8K-1" vertex="1">
          <mxGeometry x="50" y="30" width="40" height="30" as="geometry" />
        </mxCell>
        <mxCell id="-7PR-wgNFXZOQXTYZh8K-14" value="&lt;font style=&quot;font-size: 14px;&quot;&gt;&amp;nbsp;name&lt;/font&gt;" style="text;html=1;align=center;verticalAlign=middle;resizable=0;points=[];autosize=1;strokeColor=none;fillColor=none;" parent="-7PR-wgNFXZOQXTYZh8K-1" vertex="1">
          <mxGeometry x="45" y="60" width="60" height="30" as="geometry" />
        </mxCell>
        <mxCell id="-7PR-wgNFXZOQXTYZh8K-15" value="&lt;font style=&quot;font-size: 14px;&quot;&gt;&amp;nbsp; code&lt;/font&gt;" style="text;html=1;align=center;verticalAlign=middle;resizable=0;points=[];autosize=1;strokeColor=none;fillColor=none;" parent="-7PR-wgNFXZOQXTYZh8K-1" vertex="1">
          <mxGeometry x="40" y="85" width="60" height="30" as="geometry" />
        </mxCell>
        <mxCell id="-7PR-wgNFXZOQXTYZh8K-16" value="&lt;font style=&quot;font-size: 14px;&quot;&gt;&amp;nbsp; &amp;nbsp;saving_rate&lt;/font&gt;" style="text;html=1;align=center;verticalAlign=middle;resizable=0;points=[];autosize=1;strokeColor=none;fillColor=none;" parent="-7PR-wgNFXZOQXTYZh8K-1" vertex="1">
          <mxGeometry x="35" y="110" width="110" height="30" as="geometry" />
        </mxCell>
        <mxCell id="-7PR-wgNFXZOQXTYZh8K-17" value="&lt;font style=&quot;font-size: 14px;&quot;&gt;&amp;nbsp;fixed_rate&lt;/font&gt;" style="text;html=1;align=center;verticalAlign=middle;resizable=0;points=[];autosize=1;strokeColor=none;fillColor=none;" parent="-7PR-wgNFXZOQXTYZh8K-1" vertex="1">
          <mxGeometry x="45" y="140" width="90" height="30" as="geometry" />
        </mxCell>
        <mxCell id="-7PR-wgNFXZOQXTYZh8K-18" value="&lt;font style=&quot;font-size: 14px;&quot;&gt;status&lt;/font&gt;" style="text;html=1;align=center;verticalAlign=middle;resizable=0;points=[];autosize=1;strokeColor=none;fillColor=none;" parent="-7PR-wgNFXZOQXTYZh8K-1" vertex="1">
          <mxGeometry x="50" y="170" width="60" height="30" as="geometry" />
        </mxCell>
        <mxCell id="-7PR-wgNFXZOQXTYZh8K-19" value="student_saving" style="swimlane;whiteSpace=wrap;html=1;startSize=30;" parent="1" vertex="1">
          <mxGeometry x="320" y="400" width="200" height="240" as="geometry" />
        </mxCell>
        <mxCell id="-7PR-wgNFXZOQXTYZh8K-20" value="" style="endArrow=none;html=1;rounded=0;" parent="-7PR-wgNFXZOQXTYZh8K-19" edge="1">
          <mxGeometry width="50" height="50" relative="1" as="geometry">
            <mxPoint x="40" y="30" as="sourcePoint" />
            <mxPoint x="40" y="240" as="targetPoint" />
          </mxGeometry>
        </mxCell>
        <mxCell id="-7PR-wgNFXZOQXTYZh8K-21" value="" style="endArrow=none;html=1;rounded=0;entryX=1;entryY=0.25;entryDx=0;entryDy=0;" parent="-7PR-wgNFXZOQXTYZh8K-19" edge="1">
          <mxGeometry width="50" height="50" relative="1" as="geometry">
            <mxPoint y="60" as="sourcePoint" />
            <mxPoint x="200" y="60" as="targetPoint" />
          </mxGeometry>
        </mxCell>
        <mxCell id="-7PR-wgNFXZOQXTYZh8K-22" value="&lt;b&gt;PK&lt;/b&gt;" style="text;html=1;align=center;verticalAlign=middle;resizable=0;points=[];autosize=1;strokeColor=none;fillColor=none;" parent="-7PR-wgNFXZOQXTYZh8K-19" vertex="1">
          <mxGeometry y="30" width="40" height="30" as="geometry" />
        </mxCell>
        <mxCell id="-7PR-wgNFXZOQXTYZh8K-23" value="&lt;font style=&quot;font-size: 14px;&quot;&gt;&lt;u&gt;stid&lt;/u&gt;&lt;/font&gt;" style="text;html=1;align=center;verticalAlign=middle;resizable=0;points=[];autosize=1;strokeColor=none;fillColor=none;" parent="-7PR-wgNFXZOQXTYZh8K-19" vertex="1">
          <mxGeometry x="45" y="30" width="50" height="30" as="geometry" />
        </mxCell>
        <mxCell id="-7PR-wgNFXZOQXTYZh8K-24" value="&lt;font style=&quot;font-size: 14px;&quot;&gt;&amp;nbsp; &amp;nbsp; &amp;nbsp; &amp;nbsp; &amp;nbsp; &amp;nbsp;bank_name&lt;/font&gt;" style="text;html=1;align=center;verticalAlign=middle;resizable=0;points=[];autosize=1;strokeColor=none;fillColor=none;" parent="-7PR-wgNFXZOQXTYZh8K-19" vertex="1">
          <mxGeometry x="5" y="60" width="140" height="30" as="geometry" />
        </mxCell>
        <mxCell id="-7PR-wgNFXZOQXTYZh8K-25" value="&lt;font style=&quot;font-size: 14px;&quot;&gt;&amp;nbsp; code&lt;/font&gt;" style="text;html=1;align=center;verticalAlign=middle;resizable=0;points=[];autosize=1;strokeColor=none;fillColor=none;" parent="-7PR-wgNFXZOQXTYZh8K-19" vertex="1">
          <mxGeometry x="40" y="85" width="60" height="30" as="geometry" />
        </mxCell>
        <mxCell id="-7PR-wgNFXZOQXTYZh8K-26" value="&lt;font style=&quot;font-size: 14px;&quot;&gt;type&lt;/font&gt;" style="text;html=1;align=center;verticalAlign=middle;resizable=0;points=[];autosize=1;strokeColor=none;fillColor=none;" parent="-7PR-wgNFXZOQXTYZh8K-19" vertex="1">
          <mxGeometry x="50" y="110" width="50" height="30" as="geometry" />
        </mxCell>
        <mxCell id="-7PR-wgNFXZOQXTYZh8K-27" value="&lt;font style=&quot;font-size: 14px;&quot;&gt;interest&lt;/font&gt;" style="text;html=1;align=center;verticalAlign=middle;resizable=0;points=[];autosize=1;strokeColor=none;fillColor=none;" parent="-7PR-wgNFXZOQXTYZh8K-19" vertex="1">
          <mxGeometry x="50" y="140" width="70" height="30" as="geometry" />
        </mxCell>
        <mxCell id="-7PR-wgNFXZOQXTYZh8K-28" value="&lt;font style=&quot;font-size: 14px;&quot;&gt;&amp;nbsp; &amp;nbsp; &amp;nbsp; &amp;nbsp; &amp;nbsp; minBalance&lt;/font&gt;" style="text;html=1;align=center;verticalAlign=middle;resizable=0;points=[];autosize=1;strokeColor=none;fillColor=none;" parent="-7PR-wgNFXZOQXTYZh8K-19" vertex="1">
          <mxGeometry x="10" y="170" width="140" height="30" as="geometry" />
        </mxCell>
        <mxCell id="-7PR-wgNFXZOQXTYZh8K-29" value="&lt;font style=&quot;font-size: 14px;&quot;&gt;status&lt;/font&gt;" style="text;html=1;align=center;verticalAlign=middle;resizable=0;points=[];autosize=1;strokeColor=none;fillColor=none;" parent="-7PR-wgNFXZOQXTYZh8K-19" vertex="1">
          <mxGeometry x="50" y="200" width="60" height="30" as="geometry" />
        </mxCell>
        <mxCell id="-7PR-wgNFXZOQXTYZh8K-31" value="personal_loan" style="swimlane;whiteSpace=wrap;html=1;startSize=30;" parent="1" vertex="1">
          <mxGeometry x="320" y="720" width="200" height="180" as="geometry" />
        </mxCell>
        <mxCell id="-7PR-wgNFXZOQXTYZh8K-32" value="" style="endArrow=none;html=1;rounded=0;" parent="-7PR-wgNFXZOQXTYZh8K-31" edge="1">
          <mxGeometry width="50" height="50" relative="1" as="geometry">
            <mxPoint x="40" y="30" as="sourcePoint" />
            <mxPoint x="40" y="180" as="targetPoint" />
          </mxGeometry>
        </mxCell>
        <mxCell id="-7PR-wgNFXZOQXTYZh8K-33" value="" style="endArrow=none;html=1;rounded=0;entryX=1;entryY=0.25;entryDx=0;entryDy=0;" parent="-7PR-wgNFXZOQXTYZh8K-31" edge="1">
          <mxGeometry width="50" height="50" relative="1" as="geometry">
            <mxPoint y="60" as="sourcePoint" />
            <mxPoint x="200" y="60" as="targetPoint" />
          </mxGeometry>
        </mxCell>
        <mxCell id="-7PR-wgNFXZOQXTYZh8K-34" value="&lt;b&gt;PK&lt;/b&gt;" style="text;html=1;align=center;verticalAlign=middle;resizable=0;points=[];autosize=1;strokeColor=none;fillColor=none;" parent="-7PR-wgNFXZOQXTYZh8K-31" vertex="1">
          <mxGeometry y="30" width="40" height="30" as="geometry" />
        </mxCell>
        <mxCell id="-7PR-wgNFXZOQXTYZh8K-35" value="&lt;font style=&quot;font-size: 14px;&quot;&gt;&lt;u&gt;pid&lt;/u&gt;&lt;/font&gt;" style="text;html=1;align=center;verticalAlign=middle;resizable=0;points=[];autosize=1;strokeColor=none;fillColor=none;" parent="-7PR-wgNFXZOQXTYZh8K-31" vertex="1">
          <mxGeometry x="50" y="30" width="40" height="30" as="geometry" />
        </mxCell>
        <mxCell id="-7PR-wgNFXZOQXTYZh8K-36" value="&lt;font style=&quot;font-size: 14px;&quot;&gt;&amp;nbsp; name&lt;/font&gt;" style="text;html=1;align=center;verticalAlign=middle;resizable=0;points=[];autosize=1;strokeColor=none;fillColor=none;" parent="-7PR-wgNFXZOQXTYZh8K-31" vertex="1">
          <mxGeometry x="40" y="60" width="70" height="30" as="geometry" />
        </mxCell>
        <mxCell id="-7PR-wgNFXZOQXTYZh8K-37" value="&lt;font style=&quot;font-size: 14px;&quot;&gt;&amp;nbsp; code&lt;/font&gt;" style="text;html=1;align=center;verticalAlign=middle;resizable=0;points=[];autosize=1;strokeColor=none;fillColor=none;" parent="-7PR-wgNFXZOQXTYZh8K-31" vertex="1">
          <mxGeometry x="40" y="85" width="60" height="30" as="geometry" />
        </mxCell>
        <mxCell id="-7PR-wgNFXZOQXTYZh8K-39" value="&lt;font style=&quot;font-size: 14px;&quot;&gt;interest&lt;/font&gt;" style="text;html=1;align=center;verticalAlign=middle;resizable=0;points=[];autosize=1;strokeColor=none;fillColor=none;" parent="-7PR-wgNFXZOQXTYZh8K-31" vertex="1">
          <mxGeometry x="50" y="115" width="70" height="30" as="geometry" />
        </mxCell>
        <mxCell id="-7PR-wgNFXZOQXTYZh8K-41" value="&lt;font style=&quot;font-size: 14px;&quot;&gt;status&lt;/font&gt;" style="text;html=1;align=center;verticalAlign=middle;resizable=0;points=[];autosize=1;strokeColor=none;fillColor=none;" parent="-7PR-wgNFXZOQXTYZh8K-31" vertex="1">
          <mxGeometry x="50" y="145" width="60" height="30" as="geometry" />
        </mxCell>
        <mxCell id="cGJWZeEjCnaheSIyRy3c-1" value="education_loan" style="swimlane;whiteSpace=wrap;html=1;startSize=30;" parent="1" vertex="1">
          <mxGeometry x="800" y="120" width="200" height="180" as="geometry" />
        </mxCell>
        <mxCell id="cGJWZeEjCnaheSIyRy3c-2" value="" style="endArrow=none;html=1;rounded=0;" parent="cGJWZeEjCnaheSIyRy3c-1" edge="1">
          <mxGeometry width="50" height="50" relative="1" as="geometry">
            <mxPoint x="40" y="30" as="sourcePoint" />
            <mxPoint x="40" y="180" as="targetPoint" />
          </mxGeometry>
        </mxCell>
        <mxCell id="cGJWZeEjCnaheSIyRy3c-3" value="" style="endArrow=none;html=1;rounded=0;entryX=1;entryY=0.25;entryDx=0;entryDy=0;" parent="cGJWZeEjCnaheSIyRy3c-1" edge="1">
          <mxGeometry width="50" height="50" relative="1" as="geometry">
            <mxPoint y="60" as="sourcePoint" />
            <mxPoint x="200" y="60" as="targetPoint" />
          </mxGeometry>
        </mxCell>
        <mxCell id="cGJWZeEjCnaheSIyRy3c-4" value="&lt;b&gt;PK&lt;/b&gt;" style="text;html=1;align=center;verticalAlign=middle;resizable=0;points=[];autosize=1;strokeColor=none;fillColor=none;" parent="cGJWZeEjCnaheSIyRy3c-1" vertex="1">
          <mxGeometry y="30" width="40" height="30" as="geometry" />
        </mxCell>
        <mxCell id="cGJWZeEjCnaheSIyRy3c-5" value="&lt;font style=&quot;font-size: 14px;&quot;&gt;&lt;u&gt;eid&lt;/u&gt;&lt;/font&gt;" style="text;html=1;align=center;verticalAlign=middle;resizable=0;points=[];autosize=1;strokeColor=none;fillColor=none;" parent="cGJWZeEjCnaheSIyRy3c-1" vertex="1">
          <mxGeometry x="50" y="30" width="40" height="30" as="geometry" />
        </mxCell>
        <mxCell id="cGJWZeEjCnaheSIyRy3c-6" value="&lt;font style=&quot;font-size: 14px;&quot;&gt;&amp;nbsp; name&lt;/font&gt;" style="text;html=1;align=center;verticalAlign=middle;resizable=0;points=[];autosize=1;strokeColor=none;fillColor=none;" parent="cGJWZeEjCnaheSIyRy3c-1" vertex="1">
          <mxGeometry x="40" y="60" width="70" height="30" as="geometry" />
        </mxCell>
        <mxCell id="cGJWZeEjCnaheSIyRy3c-7" value="&lt;font style=&quot;font-size: 14px;&quot;&gt;&amp;nbsp; code&lt;/font&gt;" style="text;html=1;align=center;verticalAlign=middle;resizable=0;points=[];autosize=1;strokeColor=none;fillColor=none;" parent="cGJWZeEjCnaheSIyRy3c-1" vertex="1">
          <mxGeometry x="40" y="85" width="60" height="30" as="geometry" />
        </mxCell>
        <mxCell id="cGJWZeEjCnaheSIyRy3c-8" value="&lt;font style=&quot;font-size: 14px;&quot;&gt;interest&lt;/font&gt;" style="text;html=1;align=center;verticalAlign=middle;resizable=0;points=[];autosize=1;strokeColor=none;fillColor=none;" parent="cGJWZeEjCnaheSIyRy3c-1" vertex="1">
          <mxGeometry x="50" y="115" width="70" height="30" as="geometry" />
        </mxCell>
        <mxCell id="cGJWZeEjCnaheSIyRy3c-9" value="&lt;font style=&quot;font-size: 14px;&quot;&gt;status&lt;/font&gt;" style="text;html=1;align=center;verticalAlign=middle;resizable=0;points=[];autosize=1;strokeColor=none;fillColor=none;" parent="cGJWZeEjCnaheSIyRy3c-1" vertex="1">
          <mxGeometry x="50" y="145" width="60" height="30" as="geometry" />
        </mxCell>
        <mxCell id="cGJWZeEjCnaheSIyRy3c-10" value="users" style="swimlane;whiteSpace=wrap;html=1;startSize=30;" parent="1" vertex="1">
          <mxGeometry x="800" y="400" width="200" height="180" as="geometry" />
        </mxCell>
        <mxCell id="cGJWZeEjCnaheSIyRy3c-11" value="" style="endArrow=none;html=1;rounded=0;" parent="cGJWZeEjCnaheSIyRy3c-10" edge="1">
          <mxGeometry width="50" height="50" relative="1" as="geometry">
            <mxPoint x="40" y="30" as="sourcePoint" />
            <mxPoint x="40" y="180" as="targetPoint" />
          </mxGeometry>
        </mxCell>
        <mxCell id="cGJWZeEjCnaheSIyRy3c-12" value="" style="endArrow=none;html=1;rounded=0;entryX=1;entryY=0.25;entryDx=0;entryDy=0;" parent="cGJWZeEjCnaheSIyRy3c-10" edge="1">
          <mxGeometry width="50" height="50" relative="1" as="geometry">
            <mxPoint y="60" as="sourcePoint" />
            <mxPoint x="200" y="60" as="targetPoint" />
          </mxGeometry>
        </mxCell>
        <mxCell id="cGJWZeEjCnaheSIyRy3c-13" value="&lt;b&gt;PK&lt;/b&gt;" style="text;html=1;align=center;verticalAlign=middle;resizable=0;points=[];autosize=1;strokeColor=none;fillColor=none;" parent="cGJWZeEjCnaheSIyRy3c-10" vertex="1">
          <mxGeometry y="30" width="40" height="30" as="geometry" />
        </mxCell>
        <mxCell id="cGJWZeEjCnaheSIyRy3c-14" value="&lt;font style=&quot;font-size: 14px;&quot;&gt;&lt;u&gt;id&lt;/u&gt;&lt;/font&gt;" style="text;html=1;align=center;verticalAlign=middle;resizable=0;points=[];autosize=1;strokeColor=none;fillColor=none;" parent="cGJWZeEjCnaheSIyRy3c-10" vertex="1">
          <mxGeometry x="55" y="30" width="30" height="30" as="geometry" />
        </mxCell>
        <mxCell id="cGJWZeEjCnaheSIyRy3c-15" value="&lt;font style=&quot;font-size: 14px;&quot;&gt;&amp;nbsp; &amp;nbsp; &amp;nbsp; &amp;nbsp; &amp;nbsp; &amp;nbsp; username&lt;/font&gt;" style="text;html=1;align=center;verticalAlign=middle;resizable=0;points=[];autosize=1;strokeColor=none;fillColor=none;" parent="cGJWZeEjCnaheSIyRy3c-10" vertex="1">
          <mxGeometry x="5" y="60" width="130" height="30" as="geometry" />
        </mxCell>
        <mxCell id="cGJWZeEjCnaheSIyRy3c-16" value="&lt;font style=&quot;font-size: 14px;&quot;&gt;&amp;nbsp; &amp;nbsp; email&lt;/font&gt;" style="text;html=1;align=center;verticalAlign=middle;resizable=0;points=[];autosize=1;strokeColor=none;fillColor=none;" parent="cGJWZeEjCnaheSIyRy3c-10" vertex="1">
          <mxGeometry x="35" y="85" width="70" height="30" as="geometry" />
        </mxCell>
        <mxCell id="cGJWZeEjCnaheSIyRy3c-17" value="&lt;font style=&quot;font-size: 14px;&quot;&gt;&amp;nbsp; &amp;nbsp;password&lt;/font&gt;" style="text;html=1;align=center;verticalAlign=middle;resizable=0;points=[];autosize=1;strokeColor=none;fillColor=none;" parent="cGJWZeEjCnaheSIyRy3c-10" vertex="1">
          <mxGeometry x="35" y="115" width="100" height="30" as="geometry" />
        </mxCell>
        <mxCell id="cGJWZeEjCnaheSIyRy3c-18" value="&lt;font style=&quot;font-size: 14px;&quot;&gt;&amp;nbsp; &amp;nbsp;isAdmin&lt;/font&gt;" style="text;html=1;align=center;verticalAlign=middle;resizable=0;points=[];autosize=1;strokeColor=none;fillColor=none;" parent="cGJWZeEjCnaheSIyRy3c-10" vertex="1">
          <mxGeometry x="40" y="145" width="80" height="30" as="geometry" />
        </mxCell>
        <mxCell id="cGJWZeEjCnaheSIyRy3c-19" value="star" style="swimlane;whiteSpace=wrap;html=1;startSize=30;" parent="1" vertex="1">
          <mxGeometry x="800" y="720" width="200" height="300" as="geometry" />
        </mxCell>
        <mxCell id="cGJWZeEjCnaheSIyRy3c-20" value="" style="endArrow=none;html=1;rounded=0;" parent="cGJWZeEjCnaheSIyRy3c-19" edge="1">
          <mxGeometry width="50" height="50" relative="1" as="geometry">
            <mxPoint x="40" y="30" as="sourcePoint" />
            <mxPoint x="40" y="300" as="targetPoint" />
          </mxGeometry>
        </mxCell>
        <mxCell id="cGJWZeEjCnaheSIyRy3c-21" value="" style="endArrow=none;html=1;rounded=0;entryX=1;entryY=0.25;entryDx=0;entryDy=0;" parent="cGJWZeEjCnaheSIyRy3c-19" edge="1">
          <mxGeometry width="50" height="50" relative="1" as="geometry">
            <mxPoint y="60" as="sourcePoint" />
            <mxPoint x="200" y="60" as="targetPoint" />
          </mxGeometry>
        </mxCell>
        <mxCell id="cGJWZeEjCnaheSIyRy3c-22" value="&lt;b&gt;PK&lt;/b&gt;" style="text;html=1;align=center;verticalAlign=middle;resizable=0;points=[];autosize=1;strokeColor=none;fillColor=none;" parent="cGJWZeEjCnaheSIyRy3c-19" vertex="1">
          <mxGeometry y="30" width="40" height="30" as="geometry" />
        </mxCell>
        <mxCell id="cGJWZeEjCnaheSIyRy3c-23" value="&lt;font style=&quot;font-size: 14px;&quot;&gt;&lt;u&gt;starid&lt;/u&gt;&lt;/font&gt;" style="text;html=1;align=center;verticalAlign=middle;resizable=0;points=[];autosize=1;strokeColor=none;fillColor=none;" parent="cGJWZeEjCnaheSIyRy3c-19" vertex="1">
          <mxGeometry x="40" y="30" width="60" height="30" as="geometry" />
        </mxCell>
        <mxCell id="cGJWZeEjCnaheSIyRy3c-24" value="&lt;span style=&quot;font-size: 14px;&quot;&gt;isStar&lt;/span&gt;" style="text;html=1;align=center;verticalAlign=middle;resizable=0;points=[];autosize=1;strokeColor=none;fillColor=none;" parent="cGJWZeEjCnaheSIyRy3c-19" vertex="1">
          <mxGeometry x="40" y="60" width="60" height="30" as="geometry" />
        </mxCell>
        <mxCell id="cGJWZeEjCnaheSIyRy3c-25" value="&lt;font style=&quot;font-size: 14px;&quot;&gt;userId&lt;/font&gt;" style="text;html=1;align=center;verticalAlign=middle;resizable=0;points=[];autosize=1;strokeColor=none;fillColor=none;" parent="cGJWZeEjCnaheSIyRy3c-19" vertex="1">
          <mxGeometry x="40" y="90" width="60" height="30" as="geometry" />
        </mxCell>
        <mxCell id="cGJWZeEjCnaheSIyRy3c-26" value="&lt;font style=&quot;font-size: 14px;&quot;&gt;&amp;nbsp;bank&lt;/font&gt;" style="text;html=1;align=center;verticalAlign=middle;resizable=0;points=[];autosize=1;strokeColor=none;fillColor=none;" parent="cGJWZeEjCnaheSIyRy3c-19" vertex="1">
          <mxGeometry x="35" y="110" width="60" height="30" as="geometry" />
        </mxCell>
        <mxCell id="cGJWZeEjCnaheSIyRy3c-27" value="&lt;font style=&quot;font-size: 14px;&quot;&gt;&amp;nbsp; types&lt;/font&gt;" style="text;html=1;align=center;verticalAlign=middle;resizable=0;points=[];autosize=1;strokeColor=none;fillColor=none;" parent="cGJWZeEjCnaheSIyRy3c-19" vertex="1">
          <mxGeometry x="35" y="140" width="60" height="30" as="geometry" />
        </mxCell>
        <mxCell id="cGJWZeEjCnaheSIyRy3c-28" value="&lt;font style=&quot;font-size: 14px;&quot;&gt;&amp;nbsp; interests&lt;/font&gt;" style="text;html=1;align=center;verticalAlign=middle;resizable=0;points=[];autosize=1;strokeColor=none;fillColor=none;" parent="cGJWZeEjCnaheSIyRy3c-19" vertex="1">
          <mxGeometry x="35" y="170" width="80" height="30" as="geometry" />
        </mxCell>
        <mxCell id="cGJWZeEjCnaheSIyRy3c-29" value="&lt;font style=&quot;font-size: 14px;&quot;&gt;edid&lt;/font&gt;" style="text;html=1;align=center;verticalAlign=middle;resizable=0;points=[];autosize=1;strokeColor=none;fillColor=none;" parent="cGJWZeEjCnaheSIyRy3c-19" vertex="1">
          <mxGeometry x="40" y="200" width="50" height="30" as="geometry" />
        </mxCell>
        <mxCell id="C6s3-FPIwO96f6rfFXTk-1" value="&lt;font style=&quot;font-size: 14px;&quot;&gt;&amp;nbsp;stdSav&lt;/font&gt;" style="text;html=1;align=center;verticalAlign=middle;resizable=0;points=[];autosize=1;strokeColor=none;fillColor=none;" parent="cGJWZeEjCnaheSIyRy3c-19" vertex="1">
          <mxGeometry x="35" y="230" width="70" height="30" as="geometry" />
        </mxCell>
        <mxCell id="C6s3-FPIwO96f6rfFXTk-2" value="&lt;font style=&quot;font-size: 14px;&quot;&gt;&amp;nbsp;sf&lt;/font&gt;" style="text;html=1;align=center;verticalAlign=middle;resizable=0;points=[];autosize=1;strokeColor=none;fillColor=none;" parent="cGJWZeEjCnaheSIyRy3c-19" vertex="1">
          <mxGeometry x="35" y="250" width="40" height="30" as="geometry" />
        </mxCell>
        <mxCell id="C6s3-FPIwO96f6rfFXTk-3" value="&lt;font style=&quot;font-size: 14px;&quot;&gt;pdid&lt;/font&gt;" style="text;html=1;align=center;verticalAlign=middle;resizable=0;points=[];autosize=1;strokeColor=none;fillColor=none;" parent="cGJWZeEjCnaheSIyRy3c-19" vertex="1">
          <mxGeometry x="40" y="270" width="50" height="30" as="geometry" />
        </mxCell>
        <mxCell id="C6s3-FPIwO96f6rfFXTk-7" value="&lt;b&gt;FK&lt;/b&gt;" style="text;html=1;align=center;verticalAlign=middle;resizable=0;points=[];autosize=1;strokeColor=none;fillColor=none;" parent="cGJWZeEjCnaheSIyRy3c-19" vertex="1">
          <mxGeometry y="200" width="40" height="30" as="geometry" />
        </mxCell>
        <mxCell id="C6s3-FPIwO96f6rfFXTk-8" value="&lt;b&gt;FK&lt;/b&gt;" style="text;html=1;align=center;verticalAlign=middle;resizable=0;points=[];autosize=1;strokeColor=none;fillColor=none;" parent="cGJWZeEjCnaheSIyRy3c-19" vertex="1">
          <mxGeometry y="230" width="40" height="30" as="geometry" />
        </mxCell>
        <mxCell id="C6s3-FPIwO96f6rfFXTk-9" value="&lt;b&gt;FK&lt;/b&gt;" style="text;html=1;align=center;verticalAlign=middle;resizable=0;points=[];autosize=1;strokeColor=none;fillColor=none;" parent="cGJWZeEjCnaheSIyRy3c-19" vertex="1">
          <mxGeometry y="250" width="40" height="30" as="geometry" />
        </mxCell>
        <mxCell id="C6s3-FPIwO96f6rfFXTk-10" value="&lt;b&gt;FK&lt;/b&gt;" style="text;html=1;align=center;verticalAlign=middle;resizable=0;points=[];autosize=1;strokeColor=none;fillColor=none;" parent="cGJWZeEjCnaheSIyRy3c-19" vertex="1">
          <mxGeometry y="270" width="40" height="30" as="geometry" />
        </mxCell>
        <mxCell id="C6s3-FPIwO96f6rfFXTk-4" value="&lt;b&gt;FK&lt;/b&gt;" style="text;html=1;align=center;verticalAlign=middle;resizable=0;points=[];autosize=1;strokeColor=none;fillColor=none;" parent="1" vertex="1">
          <mxGeometry x="800" y="808" width="40" height="30" as="geometry" />
        </mxCell>
        <mxCell id="C6s3-FPIwO96f6rfFXTk-11" value="history" style="swimlane;whiteSpace=wrap;html=1;startSize=30;" parent="1" vertex="1">
          <mxGeometry x="1240" y="400" width="200" height="300" as="geometry" />
        </mxCell>
        <mxCell id="C6s3-FPIwO96f6rfFXTk-12" value="" style="endArrow=none;html=1;rounded=0;" parent="C6s3-FPIwO96f6rfFXTk-11" edge="1">
          <mxGeometry width="50" height="50" relative="1" as="geometry">
            <mxPoint x="40" y="30" as="sourcePoint" />
            <mxPoint x="40" y="300" as="targetPoint" />
          </mxGeometry>
        </mxCell>
        <mxCell id="C6s3-FPIwO96f6rfFXTk-13" value="" style="endArrow=none;html=1;rounded=0;entryX=1;entryY=0.25;entryDx=0;entryDy=0;" parent="C6s3-FPIwO96f6rfFXTk-11" edge="1">
          <mxGeometry width="50" height="50" relative="1" as="geometry">
            <mxPoint y="60" as="sourcePoint" />
            <mxPoint x="200" y="60" as="targetPoint" />
          </mxGeometry>
        </mxCell>
        <mxCell id="C6s3-FPIwO96f6rfFXTk-14" value="&lt;b&gt;PK&lt;/b&gt;" style="text;html=1;align=center;verticalAlign=middle;resizable=0;points=[];autosize=1;strokeColor=none;fillColor=none;" parent="C6s3-FPIwO96f6rfFXTk-11" vertex="1">
          <mxGeometry y="30" width="40" height="30" as="geometry" />
        </mxCell>
        <mxCell id="C6s3-FPIwO96f6rfFXTk-15" value="&lt;font style=&quot;font-size: 14px;&quot;&gt;&lt;u&gt;hid&lt;/u&gt;&lt;/font&gt;" style="text;html=1;align=center;verticalAlign=middle;resizable=0;points=[];autosize=1;strokeColor=none;fillColor=none;" parent="C6s3-FPIwO96f6rfFXTk-11" vertex="1">
          <mxGeometry x="40" y="30" width="40" height="30" as="geometry" />
        </mxCell>
        <mxCell id="C6s3-FPIwO96f6rfFXTk-16" value="&lt;span style=&quot;font-size: 14px;&quot;&gt;userId&lt;/span&gt;" style="text;html=1;align=center;verticalAlign=middle;resizable=0;points=[];autosize=1;strokeColor=none;fillColor=none;" parent="C6s3-FPIwO96f6rfFXTk-11" vertex="1">
          <mxGeometry x="40" y="60" width="60" height="30" as="geometry" />
        </mxCell>
        <mxCell id="C6s3-FPIwO96f6rfFXTk-17" value="&lt;font style=&quot;font-size: 14px;&quot;&gt;bank&lt;/font&gt;" style="text;html=1;align=center;verticalAlign=middle;resizable=0;points=[];autosize=1;strokeColor=none;fillColor=none;" parent="C6s3-FPIwO96f6rfFXTk-11" vertex="1">
          <mxGeometry x="40" y="90" width="50" height="30" as="geometry" />
        </mxCell>
        <mxCell id="C6s3-FPIwO96f6rfFXTk-18" value="&lt;font style=&quot;font-size: 14px;&quot;&gt;type&lt;/font&gt;" style="text;html=1;align=center;verticalAlign=middle;resizable=0;points=[];autosize=1;strokeColor=none;fillColor=none;" parent="C6s3-FPIwO96f6rfFXTk-11" vertex="1">
          <mxGeometry x="40" y="120" width="50" height="30" as="geometry" />
        </mxCell>
        <mxCell id="C6s3-FPIwO96f6rfFXTk-19" value="&lt;font style=&quot;font-size: 14px;&quot;&gt;principle&lt;/font&gt;" style="text;html=1;align=center;verticalAlign=middle;resizable=0;points=[];autosize=1;strokeColor=none;fillColor=none;" parent="C6s3-FPIwO96f6rfFXTk-11" vertex="1">
          <mxGeometry x="35" y="150" width="80" height="30" as="geometry" />
        </mxCell>
        <mxCell id="C6s3-FPIwO96f6rfFXTk-20" value="&lt;font style=&quot;font-size: 14px;&quot;&gt;time&lt;/font&gt;" style="text;html=1;align=center;verticalAlign=middle;resizable=0;points=[];autosize=1;strokeColor=none;fillColor=none;" parent="C6s3-FPIwO96f6rfFXTk-11" vertex="1">
          <mxGeometry x="40" y="180" width="50" height="30" as="geometry" />
        </mxCell>
        <mxCell id="C6s3-FPIwO96f6rfFXTk-21" value="&lt;font style=&quot;font-size: 14px;&quot;&gt;&amp;nbsp;rate&lt;/font&gt;" style="text;html=1;align=center;verticalAlign=middle;resizable=0;points=[];autosize=1;strokeColor=none;fillColor=none;" parent="C6s3-FPIwO96f6rfFXTk-11" vertex="1">
          <mxGeometry x="35" y="210" width="50" height="30" as="geometry" />
        </mxCell>
        <mxCell id="C6s3-FPIwO96f6rfFXTk-22" value="&lt;font style=&quot;font-size: 14px;&quot;&gt;&amp;nbsp;result&lt;/font&gt;" style="text;html=1;align=center;verticalAlign=middle;resizable=0;points=[];autosize=1;strokeColor=none;fillColor=none;" parent="C6s3-FPIwO96f6rfFXTk-11" vertex="1">
          <mxGeometry x="35" y="240" width="60" height="30" as="geometry" />
        </mxCell>
        <mxCell id="C6s3-FPIwO96f6rfFXTk-23" value="&lt;font style=&quot;font-size: 14px;&quot;&gt;&amp;nbsp;total&lt;/font&gt;" style="text;html=1;align=center;verticalAlign=middle;resizable=0;points=[];autosize=1;strokeColor=none;fillColor=none;" parent="C6s3-FPIwO96f6rfFXTk-11" vertex="1">
          <mxGeometry x="35" y="270" width="50" height="30" as="geometry" />
        </mxCell>
        <mxCell id="C6s3-FPIwO96f6rfFXTk-29" value="&lt;b&gt;FK&lt;/b&gt;" style="text;html=1;align=center;verticalAlign=middle;resizable=0;points=[];autosize=1;strokeColor=none;fillColor=none;" parent="C6s3-FPIwO96f6rfFXTk-11" vertex="1">
          <mxGeometry y="60" width="40" height="30" as="geometry" />
        </mxCell>
        <mxCell id="C6s3-FPIwO96f6rfFXTk-31" value="" style="endArrow=none;html=1;rounded=0;entryX=0.037;entryY=0.696;entryDx=0;entryDy=0;entryPerimeter=0;exitX=1;exitY=0.25;exitDx=0;exitDy=0;" parent="1" source="-7PR-wgNFXZOQXTYZh8K-31" target="C6s3-FPIwO96f6rfFXTk-10" edge="1">
          <mxGeometry width="50" height="50" relative="1" as="geometry">
            <mxPoint x="610" y="740" as="sourcePoint" />
            <mxPoint x="660" y="758" as="targetPoint" />
            <Array as="points">
              <mxPoint x="600" y="765" />
              <mxPoint x="600" y="1010" />
            </Array>
          </mxGeometry>
        </mxCell>
        <mxCell id="C6s3-FPIwO96f6rfFXTk-51" value="" style="endArrow=none;html=1;rounded=0;entryX=-0.01;entryY=0.516;entryDx=0;entryDy=0;entryPerimeter=0;" parent="1" target="C6s3-FPIwO96f6rfFXTk-9" edge="1">
          <mxGeometry width="50" height="50" relative="1" as="geometry">
            <mxPoint x="520" y="440" as="sourcePoint" />
            <mxPoint x="811" y="700" as="targetPoint" />
            <Array as="points">
              <mxPoint x="660" y="440" />
              <mxPoint x="660" y="985" />
            </Array>
          </mxGeometry>
        </mxCell>
        <mxCell id="C6s3-FPIwO96f6rfFXTk-52" value="" style="endArrow=none;html=1;rounded=0;entryX=0.02;entryY=0.485;entryDx=0;entryDy=0;entryPerimeter=0;" parent="1" target="C6s3-FPIwO96f6rfFXTk-8" edge="1">
          <mxGeometry width="50" height="50" relative="1" as="geometry">
            <mxPoint x="520" y="160" as="sourcePoint" />
            <mxPoint x="800" y="705" as="targetPoint" />
            <Array as="points">
              <mxPoint x="690" y="160" />
              <mxPoint x="690" y="965" />
            </Array>
          </mxGeometry>
        </mxCell>
        <mxCell id="C6s3-FPIwO96f6rfFXTk-53" value="" style="endArrow=none;html=1;rounded=0;entryX=-0.03;entryY=0.56;entryDx=0;entryDy=0;entryPerimeter=0;exitX=-0.05;exitY=0.653;exitDx=0;exitDy=0;exitPerimeter=0;" parent="1" source="cGJWZeEjCnaheSIyRy3c-4" target="C6s3-FPIwO96f6rfFXTk-7" edge="1">
          <mxGeometry width="50" height="50" relative="1" as="geometry">
            <mxPoint x="530" y="170" as="sourcePoint" />
            <mxPoint x="811" y="975" as="targetPoint" />
            <Array as="points">
              <mxPoint x="720" y="170" />
              <mxPoint x="720" y="937" />
            </Array>
          </mxGeometry>
        </mxCell>
        <mxCell id="C6s3-FPIwO96f6rfFXTk-54" value="" style="endArrow=none;html=1;rounded=0;entryX=0.005;entryY=0.551;entryDx=0;entryDy=0;entryPerimeter=0;exitX=-0.036;exitY=0.579;exitDx=0;exitDy=0;exitPerimeter=0;" parent="1" source="cGJWZeEjCnaheSIyRy3c-13" target="C6s3-FPIwO96f6rfFXTk-4" edge="1">
          <mxGeometry width="50" height="50" relative="1" as="geometry">
            <mxPoint x="808" y="180" as="sourcePoint" />
            <mxPoint x="809" y="947" as="targetPoint" />
            <Array as="points">
              <mxPoint x="760" y="447" />
              <mxPoint x="760" y="825" />
            </Array>
          </mxGeometry>
        </mxCell>
        <mxCell id="C6s3-FPIwO96f6rfFXTk-55" value="" style="endArrow=none;html=1;rounded=0;exitX=1;exitY=0.25;exitDx=0;exitDy=0;entryX=-0.049;entryY=0.621;entryDx=0;entryDy=0;entryPerimeter=0;" parent="1" source="cGJWZeEjCnaheSIyRy3c-10" target="C6s3-FPIwO96f6rfFXTk-29" edge="1">
          <mxGeometry width="50" height="50" relative="1" as="geometry">
            <mxPoint x="1090" y="510" as="sourcePoint" />
            <mxPoint x="1190" y="510" as="targetPoint" />
            <Array as="points">
              <mxPoint x="1040" y="445" />
              <mxPoint x="1040" y="479" />
            </Array>
          </mxGeometry>
        </mxCell>
      </root>
    </mxGraphModel>
  </diagram>
</mxfile>
